inDegrees=yes
name=ik_S41_A06_T01
DataType=double
version=3
OpenSimVersion=4.3-2021-08-27-4bc7ad9
endheader
time	pelvis_tilt	pelvis_list	pelvis_rotation	pelvis_tx	pelvis_ty	pelvis_tz	hip_flexion_r	hip_adduction_r	hip_rotation_r	knee_angle_r	knee_angle_r_beta	ankle_angle_r	subtalar_angle_r	mtp_angle_r	hip_flexion_l	hip_adduction_l	hip_rotation_l	knee_angle_l	knee_angle_l_beta	ankle_angle_l	subtalar_angle_l	mtp_angle_l	lumbar_extension	lumbar_bending	lumbar_rotation	arm_flex_r	arm_add_r	arm_rot_r	elbow_flex_r	pro_sup_r	wrist_flex_r	wrist_dev_r	arm_flex_l	arm_add_l	arm_rot_l	elbow_flex_l	pro_sup_l	wrist_flex_l	wrist_dev_l
16.05999999999975	-8.017792318024391	-5.005960021315778	40.60382876281317	0	0.9399999999999999	0	37.40952049243246	-9.873200108684985	-9.568936831424242	43.85892238433545	0.7654826019832954	0	0	0	37.40952049243246	-9.873200108684985	-9.568936831424242	43.85892238433545	0.7654826019832954	0	0	0	-9.854152244958682	1.203842577460242	-5.17109667693098	38.46811752278501	1.780567971438697	5.90011025992323	13.69422182247195	96.451449659137	0	0	50.61191282810987	-22.88524354690404	-32.85655264278274	52.64302441193229	68.25457187644498	0	0
16.07999999999975	-7.984759268017664	-4.986871561498976	41.0032451342521	0	0.9399999999999999	0	37.46945048046572	-9.875598952240921	-9.574943623012089	43.93701633065909	0.7668455984725188	0	0	0	37.46945048046572	-9.875598952240921	-9.574943623012089	43.93701633065909	0.7668455984725188	0	0	0	-9.841177504070787	1.290144017154867	-5.566914219063391	38.26832421725298	1.748945487655656	6.133174656812682	13.86843533722657	96.2434406867625	0	0	49.60327054306164	-24.85173906468639	-35.37780959778577	50.23074833040531	60.50375651024864	0	0
16.09999999999975	-7.983951147721206	-4.982594869940479	41.20191342456805	0	0.9399999999999999	0	37.47222791584909	-9.875757695997526	-9.575291513558202	43.93979924407385	0.7668941694744043	0	0	0	37.47222791584909	-9.875757695997526	-9.575291513558202	43.93979924407385	0.7668941694744043	0	0	0	-9.851728779704507	1.34074888521858	-5.770486242740114	38.16723615025798	1.739266799806658	6.369915045428081	13.97793339800587	96.16163132427411	0	0	48.9186507591175	-25.92319752755531	-36.52518318998987	48.47769020385478	58.96720264123776	0	0
16.11999999999975	-7.969913741615538	-4.985164702907384	41.43304900116999	0	0.9399999999999999	0	37.47555899585166	-9.875947957371505	-9.57570863822856	43.9431362921569	0.7669524119507508	0	0	0	37.47555899585166	-9.875947957371505	-9.57570863822856	43.9431362921569	0.7669524119507508	0	0	0	-9.856987980164865	1.379086461561388	-5.981440368206749	38.02394925347994	1.735683470991898	6.555990524665495	14.13950451368656	95.99189568685811	0	0	48.21338088590358	-27.0527230100003	-37.50155989548836	45.94061045830385	58.13360078245241	0	0
16.13999999999974	-7.960022197865174	-4.985945632754162	41.57310200019116	0	0.9399999999999999	0	37.47785307053877	-9.876078743764095	-9.575995595830044	43.94543686832754	0.7669925645796214	0	0	0	37.47785307053877	-9.876078743764095	-9.575995595830044	43.94543686832754	0.7669925645796214	0	0	0	-9.860153384438073	1.408444027063078	-6.135225393496118	37.88669568035672	1.746679780365571	6.759291731829162	14.27381688624306	95.92876905769208	0	0	47.54664093204673	-27.98138321128401	-38.29052919100693	44.55276179247847	57.81006736159206	0	0
16.15999999999974	-7.949226015313148	-4.987806434679181	41.84135735745441	0	0.9399999999999999	0	37.48219830742192	-9.876326506728326	-9.576539287952757	43.94978963800534	0.76706853474208	0	0	0	37.48219830742192	-9.876326506728326	-9.576539287952757	43.94978963800534	0.76706853474208	0	0	0	-9.869028101106498	1.456561199374614	-6.37917640622138	37.75478726759758	1.733779793167633	6.913830001048487	14.48009853898825	95.77602038038418	0	0	46.92929001795329	-28.98964307966046	-39.26516504728162	41.09983207084606	57.59852052313585	0	0
16.17999999999974	-8.139645824793577	-5.056375077516913	42.45068674104163	0	0.9399999999999999	0	37.48754325092912	-9.87663082011187	-9.577207593764717	43.95514424529216	0.7671619902693863	0	0	0	37.48754325092912	-9.87663082011187	-9.577207593764717	43.95514424529216	0.7671619902693863	0	0	0	-10.0636951413948	1.562721021510551	-6.515707395653163	38.03606206532226	1.405478870251198	6.660156864691894	14.65794305654539	95.72657190248579	0	0	46.78428666980962	-29.45846974354737	-40.01632611315168	35.66158366411558	56.54132439764713	0	0
16.19999999999974	-8.142985790731951	-5.04631363904995	42.65544044652161	0	0.9399999999999999	0	37.49047348389436	-9.876797041660714	-9.577573172111846	43.95808673870022	0.7672133464675751	0	0	0	37.49047348389436	-9.876797041660714	-9.577573172111846	43.95808673870022	0.7672133464675751	0	0	0	-10.06308530509595	1.588684844052754	-6.580402123621164	37.91225326404061	1.306553268092926	6.637886249414488	14.82746107955177	95.70849855955402	0	0	46.0599450754596	-29.54132929967863	-40.56125540218252	34.07813624221199	55.85050880861671	0	0
16.21999999999974	-8.135349387094189	-5.050413710604921	42.9945135869152	0	0.9399999999999999	0	37.49504205425187	-9.877055197851998	-9.578141826063513	43.96268603136806	0.7672936192678917	0	0	0	37.49504205425187	-9.877055197851998	-9.578141826063513	43.96268603136806	0.7672936192678917	0	0	0	-10.06650397305582	1.618310745532015	-6.780876101306909	37.81512266165568	1.212899371978075	6.57882409109722	15.00209966868074	95.65772132488411	0	0	45.17645313779997	-29.50966831234398	-40.93981739268568	28.13640826112368	54.53844651367277	0	0
16.23999999999974	-8.13769184125961	-5.057191167688477	43.13704704946645	0	0.9399999999999999	0	37.49815624827061	-9.877231249565153	-9.578529639144675	43.96581696895963	0.7673482644375391	0	0	0	37.49815624827061	-9.877231249565153	-9.578529639144675	43.96581696895963	0.7673482644375391	0	0	0	-10.07393623294542	1.625089548585721	-6.825770397224787	37.73193660329615	1.113954630399853	6.509804960852441	15.11297115310404	95.66319010485148	0	0	44.10106005976794	-29.40985515435099	-41.36707696668924	26.65023137497854	54.57513355857338	0	0
16.25999999999974	-8.13816559517516	-5.061660472437729	43.14735136314508	0	0.9399999999999999	0	37.50321905958391	-9.877517636534645	-9.57916050147673	43.97089892137921	0.7674369612396904	0	0	0	37.50321905958391	-9.877517636534645	-9.57916050147673	43.97089892137921	0.7674369612396904	0	0	0	-10.07274944156786	1.622852705901882	-6.828679417673895	37.65221643943321	1.066166335378384	6.515104293630489	15.22422055248816	95.66535213929264	0	0	42.79876549242242	-29.12934170313798	-41.60574461142051	23.21571496222898	55.78587571540781	0	0
16.27999999999974	-8.150582980901415	-5.060022788575215	42.9755970765957	0	0.9399999999999999	0	37.50679609293881	-9.877719546647556	-9.579605708651313	43.97449235619835	0.7674996785087403	0	0	0	37.50679609293881	-9.877719546647556	-9.579605708651313	43.97449235619835	0.7674996785087403	0	0	0	-10.06662613252548	1.595770826339391	-6.669369888033255	37.59361908086984	0.9929835656830543	6.528261005306184	15.28187507512698	95.68436424679355	0	0	41.34206937307838	-28.26911832513039	-41.2458182943823	20.2571186695486	57.60520158035447	0	0
16.29999999999974	-8.159330530922897	-5.068814770116417	42.83170510399842	0	0.9399999999999999	0	37.54987138399373	-9.879374626692917	-9.583834518974381	44.03079297572466	0.768482309690387	0	0	0	37.54987138399373	-9.879374626692917	-9.583834518974381	44.03079297572466	0.768482309690387	0	0	0	-10.06362726748904	1.5629789884667	-6.524573680271726	37.57536423537839	0.9564490008856662	6.520398220531691	15.25820394491745	95.71799998633639	0	0	39.83945860482898	-26.96906040731492	-40.46391806278596	17.87844645965622	59.42668649315189	0	0
16.31999999999974	-8.125152490451176	-5.208102571838458	42.81502279844246	0	0.9399999999999999	0	37.59529951071946	-9.881101841822037	-9.588268308453488	44.09028122359364	0.7695205754819432	0	0	0	37.59529951071946	-9.881101841822037	-9.588268308453488	44.09028122359364	0.7695205754819432	0	0	0	-10.10966293260632	1.376606701147518	-6.274549130871604	37.65149254684878	1.032698247840651	6.143508381994866	15.25518351343883	95.75019258544671	0	0	38.56635214950874	-25.57500191321038	-39.26112886140374	15.98847006718087	61.03319010252739	0	0
16.33999999999974	-8.10502990663818	-5.256369184832462	42.63337778461918	0	0.9399999999999999	0	37.63587582019414	-9.882646392383084	-9.592230301495084	44.14332097792185	0.7704462938294193	0	0	0	37.63587582019414	-9.882646392383084	-9.592230301495084	44.14332097792185	0.7704462938294193	0	0	0	-10.11332178008772	1.295528045220413	-6.131262585003439	37.65801078747974	1.065562243449121	6.109704427852171	15.1721293738427	95.85478160272046	0	0	37.18929778690345	-24.04419016264713	-38.2802515063474	14.26266641498584	62.54921311679365	0	0
16.35999999999974	-8.087827715862344	-5.325291429133735	42.39945132431955	0	0.9399999999999999	0	37.6821709901374	-9.884403021823847	-9.59674261211808	44.20378984649575	0.7715016746809895	0	0	0	37.6821709901374	-9.884403021823847	-9.59674261211808	44.20378984649575	0.7715016746809895	0	0	0	-10.12754458814546	1.185486762922804	-5.925707485713586	37.69097523946911	1.183535110901995	6.05481650044221	15.10513845913804	95.92069543360974	0	0	35.82528770563113	-22.19562598615174	-37.03034362613474	13.16616566433891	63.85824032472336	0	0
